<svg xmlns="http://www.w3.org/2000/svg" viewBox="0 0 1070.42 642.23"><defs><style>.cls-1{fill:none;stroke:#1c3643;stroke-miterlimit:10;stroke-width:1.42px;}</style></defs><title>экскаватор</title><g id="Слой_2" data-name="Слой 2"><g id="Слой_1-2" data-name="Слой 1"><polyline class="cls-1" points="897.75 207.57 986.75 259.22 986.75 288.59 612.05 504.77 359.21 357.82 359.21 328.78 389.39 311.29"/><path class="cls-1" d="M964.53,246.34s4-4,18,4.1,58.2,32.77,72.34,41.86,28.22,47.91-9,105c-11.08,16.27-24.46,25.55-54.71,43.43S723.08,595.87,682.73,619.05s-49.34,26.8-66.19,18.21-66.5-37.74-75.95-44-38.23-43.76,19.66-118.59"/><path class="cls-1" d="M525.06,455.08s-66,37.16-85.17,48.44-31.64,15.71-55,1.91S324.74,470,316.64,465.1,296,440.48,306.3,405s25-49.17,33.16-58.42S359.21,331,359.21,331"/><polyline class="cls-1" points="986.75 259.22 611.56 475.65 359.74 328.78"/><line class="cls-1" x1="612.05" y1="504.77" x2="612.05" y2="475.65"/><path class="cls-1" d="M1064.91,305s-13.84-25.43-39.63-14.6S755.21,444.78,705.07,473.6s-76.6,35.89-99.92,96.22c-7.9,27.06-11.84,59.77,21.73,71.26"/><polyline class="cls-1" points="765.94 340.07 799.12 359.78 864.85 321.09 864.85 249.43 799.12 287.73 765.94 268.24"/><path class="cls-1" d="M507.49,282.68S539.05,177.28,541.57,169s7.2-18.58,15.65-23.62,35.21-20.91,54.49-31.61,23.1-13.93,29.62-11,98.49,57.2,110.93,64.32,13.69,9.19,13.69,28.64V376.36L620.43,460.14,500.65,390.6V331C500.65,305.95,505,291,507.49,282.68Z"/><line class="cls-1" x1="799.11" y1="287.73" x2="799.11" y2="357.5"/><path class="cls-1" d="M620.43,460.14V403c0-25.27,2.72-35.42,6.29-49.25s34-114.87,36.41-121.56,3-10.67,20.38-21.25,52.62-31,61.39-35.52,18.8-2.91,20.11,5.15"/><line class="cls-1" x1="625.07" y1="360.2" x2="505.3" y2="290.42"/><path class="cls-1" d="M864.85,249.43s36.19-18.51,32.9-49.81c-2.24-21.24-23.05-36.18-30.7-40.79s-15.47-9.08-15.47-9.08"/><path class="cls-1" d="M878,99.8s-16.65,20.51-21.9,28.47-5.76,11.49-5.76,39.15v62.34l-13,7.4-10.89-6.37V159.88c0-22.21-.21-31.64,15.51-53.23S858.71,84,858.71,84l12.84,7.65Z"/><path class="cls-1" d="M871.54,91.67S859.66,106.3,849,120.42c-8.49,11.27-11.93,23.12-11.7,38.84s0,77.91,0,77.91"/><path class="cls-1" d="M827.53,136.76"/><path class="cls-1" d="M827.53,136.76S794,117,778.86,108.33s-73.28-28.42-133.92-3.66"/><path class="cls-1" d="M864.85,321.09l5.25-3.38A60.37,60.37,0,0,0,897.75,267V210"/><line class="cls-1" x1="680.1" y1="213.04" x2="559.8" y2="143.84"/><line class="cls-1" x1="514" y1="260.96" x2="538.22" y2="179.94"/><polyline class="cls-1" points="539.64 175.39 532.23 170.88 525.64 172.93 503.6 254.24 514 260.96"/><path class="cls-1" d="M753.13,363.73V309.82L636.27,376.91a4.41,4.41,0,0,0-2.21,3.82V433.9a2.37,2.37,0,0,0,3.56,2l111.25-64.78A8.6,8.6,0,0,0,753.13,363.73Z"/><polyline class="cls-1" points="524.04 176.11 508.95 166.37 501.7 168.05 517 177.17"/><polyline class="cls-1" points="501.7 168.05 489.28 221.24 502.71 230.78 517 177.17"/><line class="cls-1" x1="502.71" y1="230.78" x2="510.4" y2="229.15"/><path class="cls-1" d="M524,174.2s-69-92.27-81.95-109.88S427.39,43,418.4,37.75s-13.12-7.48-17.84-10.1-24.05-.42-37.47,22S349.26,82,355.76,102.31L434,346.14A17.3,17.3,0,0,0,442,356l14.68,8.18a26.69,26.69,0,0,0,29.65-2.46l14.31-11.43"/><path class="cls-1" d="M364.89,130.78a71.72,71.72,0,0,1-19.82,17.16c-11.84,6.6-202.2,116.12-222.83,127.14s-31.58,6.69-29-12.4,9.07-28.18,19.92-37.83S323.35,36.61,333.68,29.12s25.06-7.53,27.51,3.95a133.46,133.46,0,0,1,2.54,15.55"/><path class="cls-1" d="M355.88,25.6s-11.94-7-19.22-11.53S320.89,10.7,304.21,25.6c-18.82,16.81-200.75,178-211,187C80.45,223.82,72.06,238.53,73.26,252s5.45,16.2,9.09,18.3,13.85,7.95,13.85,7.95"/><path class="cls-1" d="M406.9,513.78s-27.1-3.3-29.9-34.31,15-68,37.69-89.4"/><line class="cls-1" x1="358.64" y1="350.11" x2="344.45" y2="341.59"/><path class="cls-1" d="M616.85,595.16c-.14,18.68,18.48,31.3,34.7,22l354.07-202.25a93.22,93.22,0,0,0,46.85-76.08l.27-5.12a22.81,22.81,0,0,0-34-21.06L663.25,516.39c-30.21,17-46.23,48.87-46.4,78.77Z"/><line class="cls-1" x1="1012.69" y1="296.71" x2="986.75" y2="280.94"/><path class="cls-1" d="M431.69,340.07s-4.12,2.83-10,0-16.76-9.16-21.93-12.14S391.24,316,386.63,301.2,339,152.2,339,152.2"/><path class="cls-1" d="M351.67,143.84S408,315.37,410.62,323.68s5.82,13.81,13.19,17.2"/><path class="cls-1" d="M429.09,46.83c-4-3.45-14.84-14.91-32.29-.32C381.56,59.25,366.06,81,374.46,108.68s68.48,214.09,72.81,227.54,7.29,30,24.67,31.21"/><path class="cls-1" d="M351.61,23.28s21.92-25.22,40.69,3.82c0,0-4.8-9.47-11.8-13.62S365.83,5.27,360.1,2.05,341.18,1.1,331.34,12"/><path class="cls-1" d="M508.25,445.3l-78,44.75c-15.21,8.65-34.48-1.94-35.51-19.41-2.67-45.42,32.7-73.32,32.7-73.32"/><path class="cls-1" d="M141.62,307.79,21.87,237.28S-.5,278.28.76,317.47,24,366.39,36.18,373.68s113.28,65.13,113.28,65.13,39.07,23.67,93.38-36.12c34.33-37.8,46.49-86.08,46.49-86.08Z"/><path class="cls-1" d="M141.62,307.79s-48,94.2,4.6,129.16"/><line class="cls-1" x1="21.87" y1="237.28" x2="74.53" y2="240.05"/><polyline class="cls-1" points="289.33 316.61 277.85 309.55 280.33 290.98 266.61 282.99 258.03 285.8 250.7 301.13 266.64 310.38 277.85 309.55"/><polyline class="cls-1" points="157.99 254.97 239.53 303.74 145.02 298.35 113.13 279.54"/><line class="cls-1" x1="669.28" y1="221.26" x2="550.36" y2="151.4"/><polygon class="cls-1" points="674.71 327.43 660.77 318.91 674.71 271.37 688.64 279.68 674.71 327.43"/><path class="cls-1" d="M493.23,166.37"/><polyline class="cls-1" points="674.71 327.43 682.16 323.47 695.89 276.7 676.25 265.4"/><polyline class="cls-1" points="268.03 310.28 270.28 293.38 258.03 285.8"/><polyline class="cls-1" points="253.5 295.26 248.4 292.05 250.82 273.48 237.43 265.49 229.04 268.3 221.89 283.62 237.45 292.88 248.4 292.05"/><polyline class="cls-1" points="238.81 292.78 241 275.88 229.04 268.3"/><polyline class="cls-1" points="223.91 277.99 218.81 274.77 221.23 256.2 207.84 248.22 199.45 251.03 192.3 266.35 207.86 275.61 218.81 274.77"/><polyline class="cls-1" points="209.22 275.51 211.41 258.61 199.45 251.03"/><polyline class="cls-1" points="194.4 260.59 189.3 257.37 191.72 238.81 189.08 237.24 165.73 251.03 178.35 258.21 189.3 257.37"/><line class="cls-1" x1="179.71" y1="258.11" x2="181.72" y2="242.63"/><path class="cls-1" d="M248.26,294.49"/><line class="cls-1" x1="390.75" y1="50.81" x2="371.13" y2="39.35"/><line class="cls-1" x1="335.27" y1="27.7" x2="316.74" y2="16.88"/><path class="cls-1" d="M165.23,258.94s-3.32,18-17.3,39.49"/><polyline class="cls-1" points="641.64 320.13 649.67 325.42 653.75 325.31 673.24 254.18 664.12 249.26"/><path class="cls-1" d="M671.95,244.45l3-8.87a16.25,16.25,0,0,1,7.3-8.86l63.42-36.33a4.8,4.8,0,0,1,7.18,4.16v95.86L637.73,356.17l7.21-24.67"/><polygon class="cls-1" points="652.37 230.33 618.13 342.36 519.41 285.63 552.47 172.34 652.37 230.33"/><ellipse class="cls-1" cx="983.59" cy="379.39" rx="38.31" ry="22.61" transform="translate(163.24 1041.51) rotate(-60)"/><ellipse class="cls-1" cx="983.64" cy="379.32" rx="20.03" ry="11.82" transform="translate(163.32 1041.51) rotate(-60)"/><ellipse class="cls-1" cx="700.02" cy="542.89" rx="38.31" ry="22.61" transform="translate(-120.15 877.68) rotate(-60)"/><ellipse class="cls-1" cx="700.06" cy="542.82" rx="20.03" ry="11.82" transform="translate(-120.07 877.68) rotate(-60)"/><path class="cls-1" d="M491.11,435c-10.44,13.11-24.25,19.3-33.4,14S447,429,453,413.53"/><path class="cls-1" d="M481.26,429.14c-5,4.84-10.31,6.34-14.37,4s-5.22-8.2-3.63-14.85"/><ellipse class="cls-1" cx="412.51" cy="90.64" rx="18.66" ry="9.93" transform="translate(127.76 402.57) rotate(-60)"/><path class="cls-1" d="M421,74.08l-9.28-5c-4.75-2.74-12.77,2.27-17.93,11.2s-5.48,18.38-.73,21.12l11.14,5.85"/><polygon class="cls-1" points="738.42 512.78 738.42 526.78 943.79 408.91 943.79 393.36 738.42 512.78"/><polyline class="cls-1" points="657.28 500.99 637.73 489.96 619.81 500.82 640.64 513.15"/><ellipse class="cls-1" cx="137.48" cy="246.62" rx="18.66" ry="9.93" transform="translate(-144.84 242.37) rotate(-60)"/><path class="cls-1" d="M145.94,230.06l-9.28-5c-4.75-2.74-12.77,2.27-17.93,11.2s-5.48,18.38-.73,21.12l11.14,5.85"/><line class="cls-1" x1="107.18" y1="230.62" x2="86.77" y2="218.99"/><polyline class="cls-1" points="73.4 255.67 62.79 249.19 72.63 249.65"/></g></g></svg>