<svg height="496pt" viewBox="0 0 496 496" width="496pt" xmlns="http://www.w3.org/2000/svg"><g fill="#f0bc5e"><path d="m296 295.039062c0 .320313 0 .640626.078125.960938h-.078125l-71.601562-71.601562-.160157-.238282c6.722657-5.28125 15.121094-8.160156 23.761719-8.160156h1.519531c9.359375 0 18.320313 3.359375 25.359375 9.519531l39.921875 34.960938c7.839844 6.800781 12.480469 16.480469 13.121094 26.71875h-.082031c-2.558594-4.320313-7.359375-7.199219-12.71875-7.199219h-4.082032c-8.320312 0-15.039062 6.71875-15.039062 15.039062zm0 0"/><path d="m160 126.480469v1.519531c0 8.640625-2.878906 17.039062-8.238281 23.761719l-92.5625-92.5625 1.921875-1.679688c7.039062-6.160156 16-9.519531 25.359375-9.519531 11.121093 0 21.757812 4.800781 29.039062 13.199219l34.960938 39.921875c6.160156 7.039062 9.519531 16 9.519531 25.359375zm0 0"/><path d="m456 0h-248c-22.089844 0-40 17.910156-40 40v112c0 22.089844 17.910156 40 40 40h152v-8c0-8.839844 7.160156-16 16-16s16 7.160156 16 16v8h64c22.089844 0 40-17.910156 40-40v-112c0-22.089844-17.910156-40-40-40zm0 0"/></g><path d="m472 288c-3.160156 0-6.160156.648438-8.929688 1.761719-2.757812-10.203125-12.007812-17.761719-23.070312-17.761719-3.160156 0-6.160156.648438-8.929688 1.761719-2.757812-10.203125-12.007812-17.761719-23.070312-17.761719-2.816406 0-5.488281.574219-8 1.472656v-73.472656c0-13.230469-10.769531-24-24-24s-24 10.769531-24 24v188.40625c-1.304688-1.484375-2.199219-3.34375-2.527344-5.4375l-11.609375-75.472656c-.367187-2.382813-1.144531-4.585938-2.152343-6.648438-1.183594-11.664062-6.765626-22.671875-15.613282-30.398437l-39.921875-34.9375c-8.496093-7.421875-19.382812-11.511719-30.671875-11.511719h-1.519531c-12.441406 0-24.144531 4.839844-32.9375 13.648438l-9.382813 9.382812c-11.566406 11.570312-31.742187 11.570312-43.3125 0l-17.375-17.375c-5.792968-5.785156-8.976562-13.480469-8.976562-21.65625s3.183594-15.871094 8.96875-21.65625l9.382812-9.382812c8.800782-8.800782 13.648438-20.496094 13.648438-32.9375v-1.519532c0-11.289062-4.089844-22.175781-11.519531-30.671875l-34.929688-39.910156c-8.847656-10.121094-21.621093-15.921875-35.054687-15.921875-11.289063 0-22.175782 4.089844-30.671875 11.519531l-30.183594 26.417969c-16.296875 14.253906-25.640625 34.847656-25.640625 56.496094 0 12.863281 3.335938 25.589844 9.640625 36.796875 42.136719 74.914062 103.167969 138.195312 176.511719 183.007812l18 11.007813c11.511718 7.035156 24.726562 10.753906 38.214844 10.753906 20.175781 0 39.34375-8.382812 53.160156-22.976562l7.359375 55.214843c.960937 7.210938 3.875 14.019531 8.417969 19.699219l19.429687 24.285156c3.402344 4.25 5.265625 9.578125 5.265625 15v28.777344h128v-30.3125c0-4.75 1.390625-9.351562 4.03125-13.3125l21.25-31.871094c4.390625-6.601562 6.71875-14.273437 6.71875-22.183594v-86.320312c0-13.230469-10.769531-24-24-24zm-186.503906 52.433594c-10.886719 12.429687-26.601563 19.566406-43.128906 19.566406-10.542969 0-20.871094-2.902344-29.871094-8.398438l-18-11.007812c-71.007813-43.394531-130.113282-104.671875-170.910156-177.203125-4.960938-8.824219-7.585938-18.832031-7.585938-28.957031 0-17.035156 7.351562-33.242188 20.167969-44.457032l30.183593-26.417968c5.585938-4.871094 12.738282-7.558594 20.144532-7.558594 8.824218 0 17.207031 3.808594 23.007812 10.449219l34.929688 39.910156c4.878906 5.578125 7.566406 12.730469 7.566406 20.136719v1.519531c0 8.167969-3.175781 15.847656-8.960938 21.625l-9.382812 9.382813c-8.808594 8.808593-13.65625 20.519531-13.65625 32.976562s4.847656 24.167969 13.65625 32.96875l17.375 17.375c8.800781 8.808594 20.511719 13.65625 32.96875 13.65625s24.167969-4.847656 32.96875-13.65625l9.382812-9.382812c5.777344-5.777344 13.457032-8.960938 21.625-8.960938h1.519532c7.40625 0 14.558594 2.6875 20.136718 7.558594l39.917969 34.9375c1.847657 1.617187 3.410157 3.503906 4.800781 5.503906h-3.359374c-6.144532 0-11.921876 2.390625-16.265626 6.734375-4.34375 4.355469-6.726562 10.128906-6.726562 16.273437 0 1.023438.0625 2.046876.199219 3.03125l4.542969 34.097657zm194.503906 57.878906c0 4.75-1.390625 9.351562-4.03125 13.3125l-21.25 31.871094c-4.390625 6.601562-6.71875 14.273437-6.71875 22.191406v14.3125h-96v-12.777344c0-9.046875-3.113281-17.917968-8.769531-24.992187l-19.429688-24.285157c-2.722656-3.410156-4.472656-7.496093-5.046875-11.824218l-14.699218-110.226563c-.039063-.292969-.054688-.589843-.054688-.894531 0-1.871094.726562-3.632812 2.046875-4.953125s3.082031-2.046875 4.953125-2.046875h4.128906c3.480469 0 6.390625 2.496094 6.917969 5.9375l11.609375 75.46875c2.015625 13.089844 13.097656 22.59375 26.34375 22.59375h8v-208c0-4.40625 3.59375-8 8-8s8 3.59375 8 8v176h16v-80c0-4.40625 3.59375-8 8-8s8 3.59375 8 8v80h16v-64c0-4.40625 3.59375-8 8-8s8 3.59375 8 8v64h16v-48c0-4.40625 3.59375-8 8-8s8 3.59375 8 8zm0 0"/><path d="m344 144h-53.367188l45.457032-51.945312c5.09375-5.839844 7.910156-13.320313 7.910156-21.070313v-6.984375c0-17.648438-14.351562-32-32-32s-32 14.351562-32 32v16h16v-16c0-8.824219 7.175781-16 16-16s16 7.175781 16 16v6.984375c0 3.878906-1.40625 7.625-3.960938 10.535156l-52.039062 59.480469v19h72zm0 0"/><path d="m432 160h16v-24h16v-16h-16v-88h-20.167969l-59.832031 85.480469v18.519531h64zm-46.230469-40 46.230469-66.046875v66.046875zm0 0"/></svg>