<?xml version="1.0" encoding="iso-8859-1"?>
<!-- Generator: Adobe Illustrator 19.0.0, SVG Export Plug-In . SVG Version: 6.00 Build 0)  -->
<svg version="1.1" id="Capa_1" xmlns="http://www.w3.org/2000/svg" xmlns:xlink="http://www.w3.org/1999/xlink" x="0px" y="0px"
	 viewBox="0 0 496 496" style="enable-background:new 0 0 496 496;" xml:space="preserve">
<g>
	<rect x="152" y="240" style="fill:#FFA64D;" width="192" height="96"/>
	<rect x="40" y="272" style="fill:#FFA64D;" width="80" height="32"/>
	<rect x="376" y="272" style="fill:#FFA64D;" width="80" height="32"/>
</g>
<g>
	<path style="fill:#333333;" d="M480,184c8.816,0,16-7.184,16-16v-16c0-8.824-7.184-16-16-16h-24c-8.816,0-16,7.176-16,16v16v11.88
		l-1.008-0.72l-24.928-93.472C409.408,68.208,393.504,56,375.416,56H120.584c-18.096,0-33.992,12.208-38.648,29.696l-24.928,93.472
		L56,179.88V168v-16c0-8.824-7.184-16-16-16H16c-8.816,0-16,7.176-16,16v16c0,8.816,7.184,16,16,16h24v7.312L16.752,207.92
		C6.256,215.416,0,227.584,0,240.472V336l5.88,35.944c1.616,9.728,8.888,17.152,18.12,19.336V416c0,13.232,10.768,24,24,24h32
		c13.232,0,24-10.768,24-24v-24h288v24c0,13.232,10.768,24,24,24h32c13.232,0,24-10.768,24-24v-24.72
		c9.232-2.184,16.504-9.608,18.12-19.336l5.776-34.632l0.104-96.84c0-12.88-6.256-25.056-16.752-32.544L456,191.312V184H480z
		 M456,152h24v16h-24V152z M480,240.456c0,0.008,0,0.008,0,0.016V328H352v-80.44L480,240.456z M304,312v16h-16v-80h16v48h16v-48h16
		v80h-16v-16H304z M176,280v48h-16v-80h16v16h16v-16h16v80h-16v-48H176z M16,240.472c0-0.008,0-0.008,0-0.016l128,7.112V328H16
		V240.472z M256,232h-16v-8c0-4.416,3.584-8,8-8c4.416,0,8,3.584,8,8V232z M224,248h16v80h-16V248z M256,248h16v80h-16V248z
		 M272,232v-8c0-13.232-10.768-24-24-24s-24,10.768-24,24v8h-69.832L85.6,192h324.8l-68.568,40H272z M97.392,89.816
		C100.184,79.328,109.728,72,120.584,72h254.832c10.856,0,20.4,7.328,23.192,17.816L421.584,176H74.416L97.392,89.816z M16,168v-16
		h24v16H16z M60.84,196.088l58.432,34.088l-97.408-5.416c1.232-1.424,2.624-2.712,4.184-3.824L60.84,196.088z M88,416
		c0,4.416-3.584,8-8,8H48c-4.416,0-8-3.584-8-8v-24h48V416z M448,424h-32c-4.416,0-8-3.584-8-8v-24h48v24
		C456,420.416,452.416,424,448,424z M466.448,376H29.552c-3.928,0-7.248-2.816-7.888-6.68L17.44,344h461.12l-4.224,25.32
		C473.696,373.184,470.376,376,466.448,376z M474.136,224.76l-97.408,5.408l58.432-34.088l34.792,24.848
		C471.512,222.048,472.904,223.344,474.136,224.76z"/>
	
		<rect x="146.745" y="111.993" transform="matrix(-0.7071 0.7071 -0.7071 -0.7071 412.6136 69.0755)" style="fill:#333333;" width="90.511" height="16"/>
	
		<rect x="219.751" y="101.62" transform="matrix(-0.7071 0.7071 -0.7071 -0.7071 504.8951 10.105)" style="fill:#333333;" width="61.207" height="16"/>
	
		<rect x="205.756" y="138.592" transform="matrix(-0.7071 0.7071 -0.7071 -0.7071 467.9669 99.3449)" style="fill:#333333;" width="15.304" height="16"/>
</g>
<g>
</g>
<g>
</g>
<g>
</g>
<g>
</g>
<g>
</g>
<g>
</g>
<g>
</g>
<g>
</g>
<g>
</g>
<g>
</g>
<g>
</g>
<g>
</g>
<g>
</g>
<g>
</g>
<g>
</g>
</svg>
