<svg height="512pt" viewBox="0 0 512 512" width="512pt" xmlns="http://www.w3.org/2000/svg"><path d="m256 8c-136.964844 0-248 111.035156-248 248s111.035156 248 248 248 248-111.035156 248-248-111.035156-248-248-248zm181.023438 350.511719c54.046874-95.285157 25.019531-216.152344-66.40625-276.5-91.425782-60.347657-213.972657-39.535157-280.347657 47.613281s-53.871093 210.824219 28.605469 282.921875 206.710938 67.960937 284.203125-9.46875c-77.269531 77.140625-201.089844 81.222656-283.277344 9.347656-82.1875-71.878906-94.636719-195.140625-28.484375-282 66.15625-86.859375 188.292969-107.617187 279.429688-47.488281 91.136718 60.128906 120.105468 180.582031 66.277344 275.574219zm-87.199219-196.335938 33.945312-33.945312zm33.945312 221.601563-33.945312-33.945313zm-63.769531-127.777344h-64zm-191.769531-127.769531 33.945312 33.945312zm33.945312 221.601562-33.945312 33.945313zm-42.175781-93.832031" fill="#acabb1"/><path d="m464 256c0 114.875-93.125 208-208 208s-208-93.125-208-208 93.125-208 208-208 208 93.125 208 208zm0 0" fill="#ff9811"/><g fill="#231f20"><path d="m256 0c-141.386719 0-256 114.613281-256 256s114.613281 256 256 256 256-114.613281 256-256c-.160156-141.320312-114.679688-255.839844-256-256zm0 496c-132.546875 0-240-107.453125-240-240s107.453125-240 240-240 240 107.453125 240 240c-.148438 132.484375-107.515625 239.851562-240 240zm0 0"/><path d="m256 40c-97.761719 0-183.335938 65.664062-208.636719 160.097656-25.304687 94.429688 15.972657 194.082032 100.636719 242.964844 84.667969 48.878906 191.605469 34.800781 260.734375-34.328125 3.035156-3.136719 2.988281-8.128906-.097656-11.214844-3.085938-3.082031-8.074219-3.128906-11.210938-.09375-74.289062 74.140625-193.316406 78.058594-272.316406 8.960938-79-69.101563-90.960937-187.589844-27.367187-271.085938 63.597656-83.492187 181.003906-103.445312 268.609374-45.644531 87.609376 57.796875 115.460938 173.585938 63.71875 264.902344-1.480468 2.492187-1.5 5.585937-.050781 8.097656 1.449219 2.507812 4.144531 4.035156 7.039063 3.996094 2.898437-.042969 5.546875-1.648438 6.925781-4.195313 37.84375-66.882812 37.316406-148.828125-1.386719-215.214843-38.703125-66.386719-109.753906-107.222657-186.597656-107.242188zm0 0"/><path d="m328 256c0-4.417969-3.582031-8-8-8h-56v-96c0-4.417969-3.582031-8-8-8s-8 3.582031-8 8v104c0 4.417969 3.582031 8 8 8h64c4.417969 0 8-3.582031 8-8zm0 0"/><path d="m128 256c0-4.417969-3.582031-8-8-8h-48c-4.417969 0-8 3.582031-8 8s3.582031 8 8 8h48c4.417969 0 8-3.582031 8-8zm0 0"/><path d="m440 264c4.417969 0 8-3.582031 8-8s-3.582031-8-8-8h-48c-4.417969 0-8 3.582031-8 8s3.582031 8 8 8zm0 0"/><path d="m256 128c4.417969 0 8-3.582031 8-8v-48c0-4.417969-3.582031-8-8-8s-8 3.582031-8 8v48c0 4.417969 3.582031 8 8 8zm0 0"/><path d="m248 392v48c0 4.417969 3.582031 8 8 8s8-3.582031 8-8v-48c0-4.417969-3.582031-8-8-8s-8 3.582031-8 8zm0 0"/><path d="m167.832031 156.519531-33.945312-33.945312c-3.136719-3.03125-8.128907-2.988281-11.214844.097656s-3.128906 8.078125-.097656 11.214844l33.945312 33.945312c3.140625 3.03125 8.128907 2.988281 11.214844-.097656s3.128906-8.074219.097656-11.214844zm0 0"/><path d="m344.167969 355.480469 33.945312 33.945312c2.007813 2.078125 4.980469 2.910157 7.777344 2.179688s4.984375-2.917969 5.714844-5.714844-.101563-5.769531-2.179688-7.777344l-33.945312-33.945312c-3.140625-3.03125-8.128907-2.988281-11.214844.097656s-3.128906 8.074219-.097656 11.214844zm0 0"/><path d="m349.824219 170.175781c2.121093 0 4.15625-.84375 5.65625-2.34375l33.945312-33.945312c2.078125-2.007813 2.910157-4.980469 2.179688-7.777344s-2.917969-4.984375-5.714844-5.714844-5.769531.101563-7.777344 2.179688l-33.945312 33.945312c-2.289063 2.289063-2.972657 5.730469-1.734375 8.71875 1.238281 2.988281 4.15625 4.9375 7.390625 4.9375zm0 0"/><path d="m128.230469 391.769531c2.125-.003906 4.15625-.84375 5.65625-2.34375l33.945312-33.945312c3.03125-3.140625 2.988281-8.128907-.097656-11.214844s-8.074219-3.128906-11.214844-.097656l-33.945312 33.945312c-2.285157 2.285157-2.96875 5.726563-1.730469 8.714844s4.152344 4.9375 7.386719 4.941406zm0 0"/></g></svg>