<svg height="496pt" viewBox="0 0 496 496.704" width="496pt" xmlns="http://www.w3.org/2000/svg"><g fill="#f0bc5e"><path d="m88.351562 32v56h-56v56h288v-112zm0 0"/><path d="m376.351562 424c-30.871093 0-56-25.128906-56-56s25.128907-56 56-56c30.871094 0 56 25.128906 56 56s-25.128906 56-56 56zm0 0"/><path d="m240.351562 432h-208v-144h208zm0 0"/></g><path d="m488.351562 272c-30.871093 0-56-25.128906-56-56v-8h-80v-208h-267.3125l-84.6875 84.6875v379.3125h322.777344c14.75 12.726562 31.527344 23.40625 50.070313 31.351562l3.152343 1.351563 3.152344-1.351563c70.984375-30.414062 116.847656-99.976562 116.847656-177.199218v-46.152344zm-408-244.6875v52.6875h-52.6875zm-64 68.6875h80v-80h240v192h-16v8c0 30.871094-25.128906 56-56 56h-8v46.152344c0 49.09375 18.59375 95.039062 50.328126 129.847656h-290.328126zm464 222.152344c0 69.671875-40.703124 132.527344-104 161.113281-63.296874-28.578125-104-91.441406-104-161.113281v-30.59375c33.320313-3.695313 59.855469-30.230469 63.550782-63.550782h80.890625c3.695312 33.320313 30.230469 59.855469 63.550781 63.550782v30.59375zm0 0"/><path d="m372.792969 372.007812-16-10.664062-8.882813 13.3125 32 21.335938 51.792969-120.839844-14.703125-6.304688zm0 0"/><path d="m64.351562 160h176v16h-176zm0 0"/><path d="m32.351562 160h16v16h-16zm0 0"/><path d="m32.351562 192h208v16h-208zm0 0"/><path d="m32.351562 224h208v16h-208zm0 0"/><path d="m32.351562 256h208v16h-208zm0 0"/></svg>